PathFileType	4	(x/y/z)	S10_PSF_T11
DataRate	CameraRate	NumFrames	NumMarkers	Units	OrigDataRate	OrigDataStartFrame	OrigNumFrames
240	240	10	51	mm	240	346	460
Frame#	Time	Sternum			R.Acromium			L.Acromium			Top.Head			R.ASIS			L.ASIS			R.PSIS			L.PSIS			R.Great.Tro			L.Great.Tro			R.Iliac.Crest			L.Iliac.Crest			V.Sacral			R.Thigh.Upper.Post			R.Thigh.Lower.Ant			R.Thigh.Lower.Post			R.Thigh.Upper.Ant			R.Knee.Lat			R.Knee.Med			R.Shank.Upper.Post			R.Shank.Lower.Ant			R.Shank.Lower.Post			R.Shank.Upper.Ant			R.Ankle.Lat			R.Ankle.Med			R.Heel.Upper			R.Heel.Med			R.Heel.Lat			R.Toe.Lat			R.Toe.Med			R.Toe.Tip			L.Thigh.Upper.Post			L.Thigh.Lower.Ant			L.Thigh.Lower.Post			L.Thigh.Upper.Ant			L.Knee.Lat			L.Knee.Med			L.Shank.Upper.Post			L.Shank.Lower.Ant			L.Shank.Lower.Post			L.Shank.Upper.Ant			L.Ankle.Lat			L.Ankle.Med			L.Heel.Upper			L.Heel.Med			L.Heel.Lat			L.Toe.Lat			L.Toe.Med			L.Toe.Tip			Cervical.Spine			Back			
		X1	Y1	Z1	X2	Y2	Z2	X3	Y3	Z3	X4	Y4	Z4	X5	Y5	Z5	X6	Y6	Z6	X7	Y7	Z7	X8	Y8	Z8	X9	Y9	Z9	X10	Y10	Z10	X11	Y11	Z11	X12	Y12	Z12	X13	Y13	Z13	X14	Y14	Z14	X15	Y15	Z15	X16	Y16	Z16	X17	Y17	Z17	X18	Y18	Z18	X19	Y19	Z19	X20	Y20	Z20	X21	Y21	Z21	X22	Y22	Z22	X23	Y23	Z23	X24	Y24	Z24	X25	Y25	Z25	X26	Y26	Z26	X27	Y27	Z27	X28	Y28	Z28	X29	Y29	Z29	X30	Y30	Z30	X31	Y31	Z31	X32	Y32	Z32	X33	Y33	Z33	X34	Y34	Z34	X35	Y35	Z35	X36	Y36	Z36	X37	Y37	Z37	X38	Y38	Z38	X39	Y39	Z39	X40	Y40	Z40	X41	Y41	Z41	X42	Y42	Z42	X43	Y43	Z43	X44	Y44	Z44	X45	Y45	Z45	X46	Y46	Z46	X47	Y47	Z47	X48	Y48	Z48	X49	Y49	Z49	X50	Y50	Z50	X51	Y51	Z51	

346	1.4375	384.88	1286.1	300.12	252.24	1442.3	442.33	279.85	1462.1	137.11	222.95	1760.5	306.88	323.52	1019.1	398	335.93	1040.4	168.92	127.89	1035.9	301.67	136.88	1047.3	220.56	254.61	937.97	464.73	276.66	977.07	107.41	222.54	1094.7	438.64	269.77	1112.7	140.79	112.12	1006.5	260.71	341.24	744.72	481.04	424.57	691.62	453.2	369.86	659.56	480.59	396.41	778.39	449.12	398.02	535.34	449.7	423.23	534.52	319.6	220.34	397.6	425.66	233.94	306.86	424.55	176.47	338.16	419.32	284.17	364.99	433.28	127.14	239.44	400.59	155.13	234.08	325.21	63.834	237.45	337.41	56.291	208.98	310.63	43.658	220.94	370.67	149.29	103.16	449.44	193.8	80.69	351.86	240.2	61.146	404.83	244.92	694.72	123.51	321.03	617.62	149.92	246.01	602.07	148.87	323.49	703.55	127.19	279.81	515.91	162.53	289.61	519.4	291	200.98	306.54	170.38	260.25	214.72	189.42	198.26	229.77	183.04	263.64	290.42	176.07	215.81	108.83	197.8	229.68	120.5	284.98	146.17	80.525	246.11	157.09	47.403	278.25	151.12	50.878	214.05	326.17	42	169.36	358.41	44.516	277.83	411.74	53.707	226.78	185.77	1507.8	292.86	102.75	1300.7	273.11
347	1.4417	389.53	1286.7	300.09	256.34	1442.7	442.16	285.4	1462.9	137.12	228.14	1760.9	307.1	328.15	1019.7	397.64	340.65	1040.5	168.56	132.59	1036.4	301.4	141.63	1047.7	220.25	259.58	938.89	464.71	281.33	977.1	107.18	226.95	1095.4	438.27	274.68	1112.9	140.36	116.86	1006.9	260.48	347.85	746.31	481.01	431.54	693.9	452.67	377.34	661.41	480.64	402.61	780.4	448.54	406.04	537.05	449.42	430.85	536.78	319.46	230.58	395.75	425.54	246.03	305.33	424.28	187.92	335.43	419.15	295.07	364.44	432.98	140.46	235.71	400.28	168.8	230.78	325.07	77.06	231.74	337	70.325	202.93	310.37	57.319	214.79	370.33	166.32	100.56	449.88	211.55	78.857	352.42	258.37	60.917	405.53	247.36	695.26	123.46	322.86	617.54	149.67	247.68	602.59	148.74	325.98	703.44	127.02	280.69	516.04	162.14	290.89	519.37	290.57	201.37	306.85	170.23	260.46	214.88	189.25	198.54	230.08	182.99	263.95	290.59	175.83	215.93	108.95	197.86	229.76	120.7	284.95	146.28	80.656	246.29	157.21	47.495	278.38	151.2	51.074	214.17	326.2	41.985	169.38	358.47	44.47	277.81	411.82	53.56	226.77	190.57	1508.3	292.43	107.67	1301.2	272.18
348	1.4458	394.17	1287.3	300.06	260.47	1443.1	441.98	290.94	1463.7	137.14	233.32	1761.4	307.34	332.8	1020.3	397.3	345.37	1040.6	168.21	137.3	1036.8	301.15	146.38	1048	219.95	264.53	939.73	464.7	285.98	977.08	106.96	231.39	1096.1	437.91	279.61	1113	139.96	121.6	1007.3	260.27	354.39	747.82	480.97	438.42	696.08	452.13	384.71	663.19	480.65	408.79	782.33	447.96	413.95	538.69	449.1	438.3	538.96	319.28	240.83	393.78	425.43	258.18	303.72	424.01	199.43	332.59	419.01	305.97	363.81	432.68	153.91	231.86	400.02	182.58	227.39	324.96	90.473	225.9	336.65	84.555	196.78	310.18	71.188	208.51	370.06	183.48	97.938	450.31	229.41	77.059	352.96	276.63	60.729	406.19	249.82	695.79	123.38	324.7	617.45	149.43	249.37	603.1	148.58	328.47	703.34	126.84	281.58	516.17	161.74	292.15	519.34	290.14	201.78	307.16	170.06	260.68	215.05	189.09	198.84	230.4	182.92	264.26	290.75	175.59	216.06	109.08	197.93	229.84	120.9	284.92	146.41	80.791	246.48	157.34	47.588	278.53	151.28	51.282	214.3	326.22	41.969	169.41	358.53	44.428	277.78	411.89	53.413	226.76	195.38	1508.6	292.01	112.6	1301.6	271.27
349	1.45	398.82	1287.8	300.01	264.63	1443.4	441.8	296.47	1464.4	137.16	238.49	1761.7	307.58	337.45	1020.7	396.97	350.07	1040.6	167.87	141.99	1037.2	300.91	151.13	1048.3	219.68	269.47	940.51	464.68	290.62	977.03	106.76	235.85	1096.7	437.56	284.55	1113.1	139.58	126.34	1007.6	260.07	360.86	749.26	480.91	445.21	698.16	451.59	391.97	664.89	480.63	414.93	784.17	447.39	421.74	540.27	448.74	445.56	541.06	319.07	251.09	391.69	425.34	270.37	302.04	423.76	211.01	329.64	418.9	316.87	363.11	432.39	167.49	227.9	399.79	196.47	223.93	324.89	104.08	219.94	336.38	98.985	190.56	310.05	85.269	202.12	369.86	200.78	95.289	450.74	247.39	75.306	353.46	294.95	60.59	406.8	252.28	696.31	123.27	326.55	617.35	149.19	251.08	603.6	148.4	330.96	703.24	126.65	282.48	516.29	161.34	293.39	519.3	289.71	202.21	307.48	169.88	260.9	215.21	188.92	199.16	230.72	182.84	264.59	290.91	175.34	216.2	109.21	198	229.94	121.12	284.9	146.55	80.932	246.69	157.49	47.683	278.68	151.36	51.503	214.43	326.24	41.953	169.43	358.58	44.391	277.75	411.96	53.267	226.74	200.2	1509	291.6	117.52	1302	270.38
350	1.4542	403.47	1288.2	299.95	268.8	1443.6	441.62	301.99	1465.1	137.2	243.65	1762.1	307.84	342.11	1021.2	396.65	354.78	1040.6	167.55	146.69	1037.5	300.69	155.87	1048.5	219.43	274.39	941.22	464.67	295.25	976.94	106.57	240.35	1097.2	437.22	289.5	1113.1	139.22	131.07	1007.9	259.88	367.27	750.62	480.84	451.92	700.13	451.04	399.13	666.5	480.56	421.03	785.93	446.82	429.4	541.77	448.35	452.64	543.06	318.84	261.37	389.49	425.25	282.61	300.31	423.51	222.65	326.59	418.8	327.76	362.35	432.1	181.2	223.86	399.61	210.47	220.41	324.84	117.88	213.89	336.17	113.62	184.27	309.99	99.568	195.62	369.73	218.2	92.63	451.16	265.46	73.606	353.94	313.34	60.509	407.37	254.76	696.8	123.15	328.41	617.25	148.95	252.81	604.09	148.2	333.45	703.13	126.47	283.39	516.4	160.94	294.61	519.25	289.28	202.68	307.81	169.68	261.14	215.38	188.76	199.48	231.05	182.75	264.93	291.08	175.11	216.33	109.34	198.08	230.06	121.34	284.88	146.69	81.079	246.91	157.64	47.782	278.84	151.45	51.735	214.56	326.26	41.936	169.46	358.64	44.359	277.72	412.03	53.122	226.73	205.02	1509.3	291.21	122.45	1302.3	269.51
351	1.4583	408.13	1288.6	299.89	273	1443.8	441.45	307.51	1465.7	137.25	248.8	1762.3	308.11	346.78	1021.6	396.35	359.48	1040.5	167.24	151.39	1037.8	300.49	160.62	1048.7	219.2	279.31	941.86	464.66	299.86	976.8	106.4	244.88	1097.7	436.9	294.44	1113.1	138.89	135.8	1008.1	259.71	373.62	751.9	480.76	458.52	701.99	450.49	406.17	668.02	480.46	427.08	787.58	446.27	436.93	543.2	447.92	459.54	544.97	318.58	271.67	387.18	425.18	294.89	298.51	423.27	234.35	323.44	418.73	338.64	361.52	431.83	195.05	219.73	399.47	224.59	216.83	324.82	131.89	207.74	336.02	128.47	177.93	310	114.09	189.04	369.66	235.74	89.972	451.57	283.62	71.969	354.41	331.78	60.492	407.9	257.25	697.28	122.99	330.28	617.14	148.72	254.55	604.56	147.98	335.95	703.01	126.3	284.33	516.52	160.54	295.8	519.2	288.85	203.17	308.14	169.47	261.4	215.55	188.61	199.82	231.38	182.65	265.29	291.24	174.87	216.47	109.47	198.15	230.21	121.57	284.86	146.84	81.233	247.13	157.8	47.885	279	151.53	51.977	214.7	326.28	41.919	169.48	358.7	44.331	277.68	412.1	52.979	226.71	209.85	1509.5	290.82	127.37	1302.6	268.67
352	1.4625	412.8	1288.9	299.82	277.23	1443.9	441.27	313.01	1466.3	137.3	253.95	1762.6	308.39	351.47	1021.9	396.07	364.18	1040.4	166.94	156.08	1038	300.31	165.36	1048.8	218.99	284.22	942.43	464.65	304.46	976.64	106.25	249.44	1098.1	436.59	299.39	1113.1	138.58	140.53	1008.2	259.56	379.91	753.1	480.66	465.03	703.74	449.94	413.1	669.45	480.32	433.06	789.12	445.72	444.33	544.55	447.45	466.26	546.77	318.29	281.98	384.77	425.11	307.21	296.67	423.05	246.12	320.2	418.67	349.52	360.63	431.56	209.03	215.54	399.37	238.8	213.22	324.83	146.09	201.53	335.94	143.52	171.55	310.06	128.83	182.4	369.65	253.4	87.329	451.97	301.86	70.401	354.85	350.28	60.549	408.4	259.75	697.75	122.82	332.16	617.03	148.49	256.31	605.02	147.73	338.45	702.89	126.13	285.28	516.63	160.14	296.98	519.14	288.42	203.68	308.47	169.25	261.66	215.72	188.46	200.17	231.71	182.54	265.66	291.4	174.65	216.62	109.61	198.23	230.39	121.8	284.85	147	81.396	247.35	157.96	47.993	279.17	151.62	52.227	214.84	326.29	41.901	169.51	358.76	44.308	277.65	412.17	52.837	226.69	214.68	1509.7	290.45	132.28	1302.9	267.85
353	1.4667	417.48	1289.2	299.76	281.49	1444	441.1	318.52	1466.8	137.36	259.08	1762.7	308.67	356.17	1022.1	395.8	368.88	1040.2	166.65	160.78	1038.1	300.14	170.11	1048.9	218.81	289.14	942.92	464.65	309.04	976.43	106.11	254.04	1098.4	436.3	304.33	1113	138.3	145.25	1008.3	259.42	386.14	754.2	480.54	471.43	705.36	449.38	419.91	670.77	480.14	438.98	790.56	445.18	451.58	545.82	446.94	472.81	548.45	317.98	292.3	382.26	425.04	319.56	294.79	422.85	257.95	316.88	418.63	360.37	359.7	431.31	223.15	211.29	399.3	253.12	209.57	324.86	160.51	195.26	335.92	158.79	165.16	310.18	143.79	175.71	369.7	271.16	84.713	452.37	320.16	68.91	355.28	368.8	60.686	408.88	262.26	698.19	122.62	334.04	616.9	148.26	258.08	605.47	147.47	340.96	702.75	125.97	286.24	516.74	159.75	298.14	519.08	287.99	204.22	308.81	169.01	261.94	215.9	188.31	200.53	232.04	182.43	266.05	291.57	174.43	216.77	109.76	198.3	230.61	122.04	284.84	147.16	81.568	247.58	158.12	48.109	279.34	151.71	52.484	214.98	326.31	41.882	169.54	358.82	44.288	277.61	412.23	52.698	226.67	219.53	1509.8	290.09	137.2	1303	267.06
354	1.4708	422.17	1289.4	299.69	285.77	1444	440.93	324.01	1467.3	137.43	264.21	1762.9	308.97	360.89	1022.4	395.55	373.59	1040.1	166.39	165.48	1038.2	300	174.85	1048.9	218.66	294.07	943.36	464.65	313.6	976.2	105.98	258.67	1098.6	436.03	309.26	1112.8	138.04	149.98	1008.3	259.3	392.32	755.21	480.4	477.73	706.86	448.83	426.59	671.98	479.91	444.84	791.87	444.65	458.7	547	446.4	479.19	550.01	317.65	302.63	379.67	424.98	331.95	292.87	422.66	269.85	313.49	418.6	371.21	358.72	431.06	237.42	206.99	399.28	267.55	205.91	324.92	175.12	188.96	335.96	174.27	158.76	310.35	158.98	168.99	369.81	289.02	82.138	452.77	338.53	67.504	355.71	387.36	60.91	409.34	264.78	698.61	122.41	335.94	616.77	148.04	259.86	605.9	147.2	343.48	702.6	125.83	287.23	516.84	159.36	299.29	519.01	287.57	204.77	309.15	168.77	262.23	216.07	188.17	200.89	232.37	182.32	266.46	291.73	174.21	216.92	109.9	198.38	230.87	122.28	284.84	147.32	81.75	247.8	158.29	48.233	279.5	151.8	52.746	215.13	326.32	41.863	169.57	358.88	44.271	277.57	412.3	52.561	226.65	224.38	1509.9	289.75	142.11	1303.2	266.3
355	1.475	426.87	1289.5	299.63	290.07	1443.9	440.77	329.5	1467.7	137.51	269.33	1762.9	309.28	365.63	1022.5	395.32	378.3	1039.9	166.14	170.19	1038.2	299.88	179.6	1048.8	218.52	299.03	943.72	464.65	318.15	975.93	105.88	263.35	1098.8	435.77	314.18	1112.7	137.81	154.7	1008.3	259.2	398.43	756.12	480.23	483.91	708.23	448.26	433.15	673.07	479.64	450.62	793.06	444.13	465.66	548.09	445.83	485.4	551.45	317.3	312.98	376.99	424.91	344.37	290.93	422.5	281.81	310.04	418.58	382.03	357.7	430.83	251.81	202.67	399.29	282.06	202.24	325.01	189.94	182.64	336.06	189.96	152.39	310.57	174.39	162.26	369.96	306.99	79.617	453.17	356.94	66.191	356.13	405.94	61.227	409.78	267.31	699.01	122.18	337.84	616.62	147.83	261.66	606.32	146.92	346	702.43	125.69	288.24	516.94	158.98	300.43	518.94	287.16	205.33	309.48	168.53	262.53	216.24	188.04	201.26	232.69	182.2	266.89	291.89	174.01	217.06	110.05	198.45	231.16	122.53	284.84	147.48	81.941	248.02	158.44	48.367	279.66	151.88	53.011	215.27	326.33	41.844	169.6	358.94	44.256	277.53	412.35	52.426	226.63	229.25	1510	289.42	147.02	1303.3	265.55
